<svg id="Layer_1" data-name="Layer 1" xmlns="http://www.w3.org/2000/svg" viewBox="0 0 1286.46 239.26"><defs><style>.cls-1{fill:#0c6;}.cls-2{fill:gray;}</style></defs><path class="cls-1" d="M168.55,107.18a61.25,61.25,0,0,1-61.25,61.25V45.94A61.25,61.25,0,0,1,168.55,107.18Z"/><path class="cls-1" d="M46.06,107.18a61.24,61.24,0,0,0,61.24,61.25V214.6A107.3,107.3,0,0,1,107.3,0V45.94A61.24,61.24,0,0,0,46.06,107.18Z"/><path d="M235.56,107.85c0,36.29,28.61,61.73,78.81,61.73a120.76,120.76,0,0,0,46.35-9V131.82c-12.83,6.52-26.42,12-44.65,12-29.17,0-47.36-13.69-47.36-36.1,0-21.88,19-36.12,47.74-36.12,18.32,0,31.45,5.5,44.27,11.91v-29a120,120,0,0,0-46-8.67C265.87,45.77,235.56,73.17,235.56,107.85Z"/><path d="M727,87.22c0-24.37-18.37-38.78-53-38.78H601.64V166.91h33V126.35H659l36.57,40.56h37.69L693.81,124C713.51,119.06,727,106.43,727,87.22Zm-61,16.19H634.6V72.27h32.88c18.56,0,26.14,5.52,26.14,15.48C693.62,98.24,684.34,103.41,666,103.41Z"/><polygon points="766.59 73.88 816.37 73.88 816.37 166.91 849.33 166.91 849.33 73.88 899.12 73.88 899.12 48.44 766.59 48.44 766.59 73.88"/><polygon points="945.84 166.91 1060.56 166.91 1060.56 142.72 978.24 142.72 978.24 117.99 1039.34 117.99 1039.34 95.93 978.24 95.93 978.24 72.63 1060.56 72.63 1060.56 48.44 945.84 48.44 945.84 166.91"/><polygon points="1189.18 106.79 1242.38 48.44 1203.35 48.44 1169.83 88.14 1136.18 48.44 1095.83 48.44 1149.02 107.14 1094.32 166.91 1133.34 166.91 1168.38 127.67 1203.54 166.91 1243.89 166.91 1189.18 106.79"/><path d="M555.07,107.65c0,37.38-29.19,62.47-73.5,62.47-44,0-73.15-25.09-73.15-62.47s29.19-62.47,73.15-62.47C525.88,45.18,555.07,70.46,555.07,107.65Zm-110.7,0c0,22.07,16.37,35.06,37.2,35.06,21,0,37.55-13,37.55-35.06,0-22.24-16.55-35.06-37.55-35.06C460.74,72.59,444.37,85.41,444.37,107.65Z"/><path class="cls-2" d="M254,216.3h14c4.65,0,7.45,1.91,7.45,5.6a4.83,4.83,0,0,1-3.76,5.13c2.87,1.15,4.24,2.64,4.24,5.29,0,4.61-3.54,6.27-8.44,6.27H254Zm12.25,8.91c1.85,0,2.62-.57,2.62-2s-.83-1.91-2.62-1.91h-5.66v3.91Zm.32,8.32c2,0,2.74-.64,2.74-2.11s-.76-2.07-2.74-2.07h-6v4.21Z"/><path class="cls-2" d="M289.37,231.46l-9.78-15.16h7.52l5.51,8.88h.31l5.58-8.88h7.32l-9.74,15.12v7.17h-6.72Z"/><path class="cls-2" d="M323.26,216.3h13.15c5.48,0,8.38,3.15,8.38,8.31,0,5.83-3.73,8.5-8.89,8.5H330v5.48h-6.69Zm12,11.56a2.76,2.76,0,0,0,3-3.09c0-2-1-3.09-3-3.09H330v6.18Z"/><path class="cls-2" d="M355.62,216.3h10.77l7.74,22.29h-7L365.56,234h-9.2l-1.59,4.62h-6.88ZM358,229h6l-2.39-7h-1.21Z"/><path class="cls-2" d="M380,216.3h6.69v16.53H398.5l-.25,5.76H380Z"/><path class="cls-2" d="M402.88,227.44c0-7.26,4.93-11.81,12.73-11.81s12.74,4.55,12.74,11.81-4.93,11.82-12.74,11.82S402.88,234.7,402.88,227.44Zm18.82,0c0-3.85-2.23-6.14-6.09-6.14s-6.08,2.29-6.08,6.14,2.23,6.15,6.05,6.15S421.7,231.3,421.7,227.44Z"/><path class="cls-2" d="M452.91,216.3h10.77l7.73,22.29h-7L462.85,234h-9.21l-1.59,4.62h-6.88ZM455.27,229h6l-2.39-7h-1.21Z"/><path class="cls-2" d="M477.29,216.3H484v16.53h11.82l-.26,5.76H477.29Z"/><path class="cls-2" d="M505.13,222h-7.8l.25-5.73H519.4l.25,5.73h-7.8v16.56h-6.72Z"/><path class="cls-2" d="M524,227.44c0-7.26,4.93-11.81,12.74-11.81s12.73,4.55,12.73,11.81-4.93,11.82-12.73,11.82S524,234.7,524,227.44Zm18.82,0c0-3.85-2.23-6.14-6.08-6.14s-6.09,2.29-6.09,6.14,2.23,6.15,6.05,6.15S542.85,231.3,542.85,227.44Z"/><path class="cls-2" d="M568.39,216.3h7l9.58,12.64h.1V216.3h6.37v22.29h-6.72l-9.81-13h-.1v13h-6.37Z"/><path class="cls-2" d="M599.33,216.3h19.49l.25,5.41H606v3.06h10.29v4.93H606v3.47h13.47l-.25,5.42H599.33Z"/><path class="cls-2" d="M632.49,222h-7.8l.25-5.73h21.82L647,222h-7.8v16.56h-6.72Z"/><path class="cls-2" d="M651.86,216.3H659l3.63,15.47H663l4.71-15.47h6.53l4.62,15.47h.35l3.56-15.47h6.82l-5.86,22.29H675l-4.07-13.44h-.19l-4.14,13.44h-8.79Z"/><path class="cls-2" d="M693.94,227.44c0-7.26,4.94-11.81,12.74-11.81s12.74,4.55,12.74,11.81-4.94,11.82-12.74,11.82S693.94,234.7,693.94,227.44Zm18.82,0c0-3.85-2.23-6.14-6.08-6.14s-6.08,2.29-6.08,6.14,2.23,6.15,6,6.15S712.76,231.3,712.76,227.44Z"/><path class="cls-2" d="M726.12,216.3h13c5.92,0,8.82,2.8,8.82,8,0,3.57-1.46,6-4.33,7.13l5.29,7.17h-7.58l-4.11-5.86h-4.39v5.86h-6.69Zm12.13,11.21c2.23,0,3-1.25,3-2.93s-.8-2.9-3-2.9h-5.44v5.83Z"/><path class="cls-2" d="M754.82,216.3h6.69v8.21h2.74l6.53-8.21h7.51l0,0L769.79,227l9,11.56,0,0H771L764.22,230h-2.71v8.57h-6.69Z"/><path class="cls-2" d="M783.34,237.12V231h0a23.78,23.78,0,0,0,10.51,2.8c2.38,0,3.6-.57,3.6-1.69s-.8-1.4-5.58-2.16c-5.22-.83-8.69-2.39-8.69-6.88,0-4.17,3.66-7.39,10.83-7.39a22.32,22.32,0,0,1,8.63,1.79v6.05l0,0a19.51,19.51,0,0,0-9.07-2.49c-2.55,0-3.57.61-3.57,1.63,0,1.3,1.56,1.43,5.48,2.1,5.22.89,8.69,2.36,8.69,7.07,0,3.66-2.74,7.32-10.6,7.32A26.44,26.44,0,0,1,783.34,237.12Z"/><path d="M1274.71,60.35v-.44c0-2.5-1.91-4.27-5.3-4.27h-5.89V69.18h2.8V64.62h3.11l2.34,4.56h3.09L1272,63.82a3.52,3.52,0,0,0,2.73-3.47m-8.39-2.21h3.09c1.77,0,2.51.59,2.51,1.92v.14c0,1.18-.74,1.92-2.51,1.92h-3.09Z"/><path d="M1268.82,48.43a14,14,0,1,0,14,14,13.7,13.7,0,0,0-14-14m0,26.05c-6.92,0-11.92-5-11.92-12.07s5-12.07,11.92-12.07,11.93,5,11.93,12.07-5,12.07-11.93,12.07"/></svg>