<?xml version="1.0" encoding="utf-8"?>
<!-- Generator: Adobe Illustrator 25.4.1, SVG Export Plug-In . SVG Version: 6.00 Build 0)  -->
<svg version="1.1" id="Layer_1" xmlns="http://www.w3.org/2000/svg" xmlns:xlink="http://www.w3.org/1999/xlink" x="0px" y="0px"
	 viewBox="0 0 51.7 40.6" style="enable-background:new 0 0 51.7 40.6;" xml:space="preserve">
<style type="text/css">
	.st0{fill:#00CC66;}
</style>
<path class="st0" d="M20.6,32.6c-6.8,0-12.3-5.5-12.3-12.3S13.9,8,20.6,8l0,0L20.6,32.6z M20.6,8V0h-0.4C9.1,0,0,9.1,0,20.3
	s9.1,20.3,20.3,20.3h0.4v-8c6.8,0,12.3-5.5,12.3-12.3S27.5,8,20.6,8L20.6,8"/>
<polygon class="st0" points="45.5,19.2 51.7,26.4 48.2,26.4 43.8,21.1 39.4,26.4 35.9,26.4 42.1,19.2 36.3,12.5 39.8,12.5 
	43.8,17.2 "/>
<circle class="st0" cx="49.2" cy="14.6" r="2.4"/>
</svg>
