<svg id="Layer_1" data-name="Layer 1" xmlns="http://www.w3.org/2000/svg" viewBox="0 0 52.38 40.6"><defs><style>.cls-1{fill:#231f20;}</style></defs><title>Cortex-Data-Lake-black</title><path class="cls-1" d="M20.65,32.58A12.28,12.28,0,0,1,20.64,8h0ZM20.65,8V0H20.3a20.3,20.3,0,0,0,0,40.6h.35v-8A12.28,12.28,0,0,0,20.66,8h0"/><path class="cls-1" d="M51.37,16.75a2.69,2.69,0,0,0-4.15,0c-.38.37-.57.54-1,.54s-.63-.17-1-.54a2.69,2.69,0,0,0-4.15,0c-.38.37-.57.54-1,.54s-.63-.17-1-.54a2.75,2.75,0,0,0-2.07-1v1.52c.44,0,.62.16,1,.54a2.69,2.69,0,0,0,4.15,0c.38-.38.56-.54,1-.54s.63.16,1,.54a2.69,2.69,0,0,0,4.15,0c.38-.37.56-.54,1-.54s.63.16,1,.54a2.76,2.76,0,0,0,2.08,1V17.29C51.94,17.29,51.75,17.12,51.37,16.75Z"/><path class="cls-1" d="M49.29,20.37a2.75,2.75,0,0,0-2.07,1c-.38.38-.57.54-1,.54s-.63-.16-1-.54a2.69,2.69,0,0,0-4.15,0c-.38.38-.57.54-1,.54s-.63-.16-1-.54a2.75,2.75,0,0,0-2.07-1v1.52c.44,0,.62.17,1,.54a2.69,2.69,0,0,0,4.15,0c.38-.37.56-.54,1-.54s.63.17,1,.54a2.69,2.69,0,0,0,4.15,0c.38-.37.56-.54,1-.54s.63.17,1,.54a2.73,2.73,0,0,0,2.08,1V21.89c-.44,0-.63-.16-1-.54A2.76,2.76,0,0,0,49.29,20.37Z"/><path class="cls-1" d="M49.29,24.71a2.72,2.72,0,0,0-2.07,1c-.38.37-.57.54-1,.54s-.63-.17-1-.54a2.69,2.69,0,0,0-4.15,0c-.38.37-.57.54-1,.54s-.63-.17-1-.54a2.72,2.72,0,0,0-2.07-1v1.52c.44,0,.62.16,1,.54a2.69,2.69,0,0,0,4.15,0c.38-.38.56-.54,1-.54s.63.16,1,.54a2.69,2.69,0,0,0,4.15,0c.38-.38.56-.54,1-.54s.63.16,1,.54a2.76,2.76,0,0,0,2.08,1V26.23c-.44,0-.63-.17-1-.54A2.73,2.73,0,0,0,49.29,24.71Z"/></svg>