<?xml version="1.0" encoding="utf-8"?>
<!-- Generator: Adobe Illustrator 25.4.1, SVG Export Plug-In . SVG Version: 6.00 Build 0)  -->
<svg version="1.1" id="Layer_1" xmlns="http://www.w3.org/2000/svg" xmlns:xlink="http://www.w3.org/1999/xlink" x="0px" y="0px"
	 viewBox="0 0 52.4 40.6" style="enable-background:new 0 0 52.4 40.6;" xml:space="preserve">
<style type="text/css">
	.st0{fill:#00CC66;}
</style>
<path class="st0" d="M20.6,32.6c-6.8,0-12.3-5.5-12.3-12.3S13.9,8,20.6,8l0,0L20.6,32.6z M20.6,8V0h-0.4C9.1,0,0,9.1,0,20.3
	s9.1,20.3,20.3,20.3h0.4v-8c6.8,0,12.3-5.5,12.3-12.3S27.5,8,20.6,8L20.6,8"/>
<path class="st0" d="M51.4,16.8c-0.9-1.1-2.6-1.3-3.8-0.4c-0.1,0.1-0.3,0.2-0.4,0.4c-0.4,0.4-0.6,0.5-1,0.5s-0.6-0.2-1-0.5
	c-0.9-1.1-2.6-1.3-3.8-0.4c-0.1,0.1-0.3,0.2-0.4,0.4c-0.4,0.4-0.6,0.5-1,0.5s-0.6-0.2-1-0.5c-0.5-0.6-1.3-1-2.1-1v1.5
	c0.4,0,0.6,0.2,1,0.5c0.9,1.1,2.6,1.3,3.8,0.4c0.1-0.1,0.3-0.2,0.4-0.4c0.4-0.4,0.6-0.5,1-0.5s0.6,0.2,1,0.5
	c0.9,1.1,2.6,1.3,3.8,0.4c0.1-0.1,0.3-0.2,0.4-0.4c0.4-0.4,0.6-0.5,1-0.5s0.6,0.2,1,0.5c0.5,0.6,1.3,1,2.1,1v-1.5
	C51.9,17.3,51.8,17.1,51.4,16.8z"/>
<path class="st0" d="M49.3,20.4c-0.8,0-1.6,0.4-2.1,1c-0.4,0.4-0.6,0.5-1,0.5s-0.6-0.2-1-0.5c-0.9-1.1-2.6-1.3-3.8-0.4
	c-0.1,0.1-0.3,0.2-0.4,0.4c-0.4,0.4-0.6,0.5-1,0.5s-0.6-0.2-1-0.5c-0.5-0.6-1.3-1-2.1-1v1.5c0.4,0,0.6,0.2,1,0.5
	c0.9,1.1,2.6,1.3,3.8,0.4c0.1-0.1,0.3-0.2,0.4-0.4c0.4-0.4,0.6-0.5,1-0.5s0.6,0.2,1,0.5c0.9,1.1,2.6,1.3,3.8,0.4
	c0.1-0.1,0.3-0.2,0.4-0.4c0.4-0.4,0.6-0.5,1-0.5s0.6,0.2,1,0.5c0.5,0.6,1.3,1,2.1,1v-1.5c-0.4,0-0.6-0.2-1-0.5
	C50.9,20.7,50.1,20.4,49.3,20.4z"/>
<path class="st0" d="M49.3,24.7c-0.8,0-1.6,0.4-2.1,1c-0.4,0.4-0.6,0.5-1,0.5s-0.6-0.2-1-0.5c-0.9-1.1-2.6-1.3-3.8-0.4
	c-0.1,0.1-0.3,0.2-0.4,0.4c-0.4,0.4-0.6,0.5-1,0.5s-0.6-0.2-1-0.5c-0.5-0.6-1.3-1-2.1-1v1.5c0.4,0,0.6,0.2,1,0.5
	c0.9,1.1,2.6,1.3,3.8,0.4c0.1-0.1,0.3-0.2,0.4-0.4c0.4-0.4,0.6-0.5,1-0.5s0.6,0.2,1,0.5c0.9,1.1,2.6,1.3,3.8,0.4
	c0.1-0.1,0.3-0.2,0.4-0.4c0.4-0.4,0.6-0.5,1-0.5s0.6,0.2,1,0.5c0.5,0.6,1.3,1,2.1,1v-1.5c-0.4,0-0.6-0.2-1-0.5
	C50.9,25.1,50.1,24.7,49.3,24.7z"/>
</svg>
