<?xml version="1.0" encoding="utf-8"?>
<!-- Generator: Adobe Illustrator 25.4.1, SVG Export Plug-In . SVG Version: 6.00 Build 0)  -->
<svg version="1.1" id="Layer_1" xmlns="http://www.w3.org/2000/svg" xmlns:xlink="http://www.w3.org/1999/xlink" x="0px" y="0px"
	 viewBox="0 0 1746.5 255.3" style="enable-background:new 0 0 1746.5 255.3;" xml:space="preserve">
<style type="text/css">
	.st0{fill:#FA582D;}
	.st1{fill:#00CC66;}
</style>
<g>
	<polygon class="st0" points="260.9,64.2 216.6,19.9 172.3,64.2 194.3,86.1 83.3,197 127.6,241.2 171.9,197 149.8,175 	"/>
	
		<rect x="16.2" y="66.2" transform="matrix(0.7074 -0.7068 0.7068 0.7074 -41.2167 95.3965)" class="st0" width="156.9" height="62.6"/>
	
		<rect x="171" y="132.4" transform="matrix(0.7074 -0.7068 0.7068 0.7074 -42.7114 224.178)" class="st0" width="156.9" height="62.6"/>
</g>
<rect x="386" y="1.5" width="1.8" height="252.4"/>
<g>
	<g>
		<g>
			<path class="st1" d="M615.2,127.5c0,33.8-27.4,61.2-61.2,61.2V66.3C587.8,66.3,615.2,93.7,615.2,127.5z"/>
			<path class="st1" d="M492.7,127.5c0,33.8,27.4,61.2,61.2,61.2V235c-59.3,0-107.3-48-107.3-107.3c0-59.3,48-107.3,107.3-107.3
				v45.9C520.2,66.3,492.7,93.7,492.7,127.5z"/>
			<path d="M682.3,128.2c0,36.3,28.6,61.7,78.8,61.7c18.2,0,33.2-3.6,46.4-9v-28.8c-12.8,6.5-26.4,12-44.6,12
				c-29.2,0-47.4-13.7-47.4-36.1c0-21.9,18.9-36.1,47.7-36.1c18.3,0,31.4,5.5,44.3,11.9v-29c-13.3-5.3-27.8-8.7-46-8.7
				C712.6,66.1,682.3,93.5,682.3,128.2z"/>
			<path d="M1173.7,107.6c0-24.4-18.4-38.8-53-38.8h-72.3v118.5h33v-40.6h24.4l36.6,40.6h37.7l-39.4-42.9
				C1160.2,139.4,1173.7,126.8,1173.7,107.6z M1112.7,123.8h-31.4V92.6h32.9c18.6,0,26.1,5.5,26.1,15.5
				C1140.3,118.6,1131,123.8,1112.7,123.8z"/>
			<polygon points="1213.3,94.2 1263.1,94.2 1263.1,187.3 1296,187.3 1296,94.2 1345.8,94.2 1345.8,68.8 1213.3,68.8 			"/>
			<polygon points="1392.5,187.3 1507.3,187.3 1507.3,163.1 1424.9,163.1 1424.9,138.3 1486,138.3 1486,116.3 1424.9,116.3 
				1424.9,93 1507.3,93 1507.3,68.8 1392.5,68.8 			"/>
			<polygon points="1635.9,127.1 1689.1,68.8 1650,68.8 1616.5,108.5 1582.9,68.8 1542.5,68.8 1595.7,127.5 1541,187.3 1580,187.3 
				1615.1,148 1650.2,187.3 1690.6,187.3 			"/>
			<g>
				<g>
					<path d="M1001.8,128c0,37.4-29.2,62.5-73.5,62.5c-44,0-73.1-25.1-73.1-62.5c0-37.4,29.2-62.5,73.1-62.5
						C972.6,65.5,1001.8,90.8,1001.8,128z M891.1,128c0,22.1,16.4,35.1,37.2,35.1c21,0,37.6-13,37.6-35.1
						c0-22.2-16.6-35.1-37.6-35.1C907.4,92.9,891.1,105.8,891.1,128z"/>
				</g>
			</g>
		</g>
	</g>
	<g>
		<path d="M1721.4,80.7v-0.4c0-2.5-1.9-4.3-5.3-4.3h-5.9v13.5h2.8V85h3.1l2.3,4.6h3.1l-2.9-5.4C1720.4,83.6,1721.4,82.3,1721.4,80.7
			 M1713,78.5h3.1c1.8,0,2.5,0.6,2.5,1.9v0.1c0,1.2-0.7,1.9-2.5,1.9h-3.1V78.5z"/>
		<path d="M1715.5,68.8c-7.9,0-14,6-14,14s6,14,14,14c7.9,0,14-6,14-14S1723.5,68.8,1715.5,68.8 M1715.5,94.8
			c-6.9,0-11.9-5-11.9-12.1c0-7.1,5-12.1,11.9-12.1c6.9,0,11.9,5,11.9,12.1C1727.4,89.8,1722.4,94.8,1715.5,94.8"/>
	</g>
</g>
</svg>
