<?xml version="1.0" encoding="utf-8"?>
<!-- Generator: Adobe Illustrator 25.4.1, SVG Export Plug-In . SVG Version: 6.00 Build 0)  -->
<svg version="1.1" id="Layer_1" xmlns="http://www.w3.org/2000/svg" xmlns:xlink="http://www.w3.org/1999/xlink" x="0px" y="0px"
	 viewBox="0 0 1746.5 266.4" style="enable-background:new 0 0 1746.5 266.4;" xml:space="preserve">
<style type="text/css">
	.st0{fill:#FA582D;}
	.st1{fill:#FFFFFF;}
	.st2{fill:#00CC66;}
</style>
<g>
	<polygon class="st0" points="260.9,67.3 216.6,23 172.3,67.3 194.3,89.2 83.3,200.1 127.6,244.4 171.9,200.1 149.8,178.1 	"/>
	
		<rect x="16.2" y="69.3" transform="matrix(0.7074 -0.7068 0.7068 0.7074 -43.4111 96.3038)" class="st0" width="156.9" height="62.6"/>
	
		<rect x="171" y="135.5" transform="matrix(0.7074 -0.7068 0.7068 0.7074 -44.9057 225.0853)" class="st0" width="156.9" height="62.6"/>
</g>
<rect x="386" y="4.6" class="st1" width="1.8" height="252.4"/>
<g>
	<g>
		<g>
			<g>
				<path class="st2" d="M615.2,133.5c0,33.8-27.4,61.2-61.2,61.2V72.3C587.8,72.3,615.2,99.7,615.2,133.5z"/>
				<path class="st2" d="M492.7,133.5c0,33.8,27.4,61.2,61.2,61.2V241c-59.3,0-107.3-48-107.3-107.3c0-59.3,48-107.3,107.3-107.3
					v45.9C520.2,72.3,492.7,99.7,492.7,133.5z"/>
				<path class="st1" d="M682.3,134.2c0,36.3,28.6,61.7,78.8,61.7c18.2,0,33.2-3.6,46.4-9v-28.8c-12.8,6.5-26.4,12-44.6,12
					c-29.2,0-47.4-13.7-47.4-36.1c0-21.9,18.9-36.1,47.7-36.1c18.3,0,31.4,5.5,44.3,11.9v-29c-13.3-5.3-27.8-8.7-46-8.7
					C712.6,72.1,682.3,99.5,682.3,134.2z"/>
				<path class="st1" d="M1173.7,113.6c0-24.4-18.4-38.8-53-38.8h-72.3v118.5h33v-40.6h24.4l36.6,40.6h37.7l-39.4-42.9
					C1160.2,145.4,1173.7,132.8,1173.7,113.6z M1112.7,129.8h-31.4V98.6h32.9c18.6,0,26.1,5.5,26.1,15.5
					C1140.3,124.6,1131,129.8,1112.7,129.8z"/>
				<polygon class="st1" points="1213.3,100.2 1263.1,100.2 1263.1,193.3 1296,193.3 1296,100.2 1345.8,100.2 1345.8,74.8 
					1213.3,74.8 				"/>
				<polygon class="st1" points="1392.5,193.3 1507.3,193.3 1507.3,169.1 1424.9,169.1 1424.9,144.3 1486,144.3 1486,122.3 
					1424.9,122.3 1424.9,99 1507.3,99 1507.3,74.8 1392.5,74.8 				"/>
				<polygon class="st1" points="1635.9,133.1 1689.1,74.8 1650,74.8 1616.5,114.5 1582.9,74.8 1542.5,74.8 1595.7,133.5 
					1541,193.3 1580,193.3 1615.1,154 1650.2,193.3 1690.6,193.3 				"/>
				<g>
					<g>
						<path class="st1" d="M1001.8,134c0,37.4-29.2,62.5-73.5,62.5c-44,0-73.1-25.1-73.1-62.5c0-37.4,29.2-62.5,73.1-62.5
							C972.6,71.5,1001.8,96.8,1001.8,134z M891.1,134c0,22.1,16.4,35.1,37.2,35.1c21,0,37.6-13,37.6-35.1
							c0-22.2-16.6-35.1-37.6-35.1C907.4,98.9,891.1,111.8,891.1,134z"/>
					</g>
				</g>
			</g>
		</g>
	</g>
	<g>
		<path class="st1" d="M1721.4,86.7v-0.4c0-2.5-1.9-4.3-5.3-4.3h-5.9v13.5h2.8V91h3.1l2.3,4.6h3.1l-2.9-5.4
			C1720.4,89.6,1721.4,88.3,1721.4,86.7 M1713,84.5h3.1c1.8,0,2.5,0.6,2.5,1.9v0.1c0,1.2-0.7,1.9-2.5,1.9h-3.1V84.5z"/>
		<path class="st1" d="M1715.5,74.8c-7.9,0-14,6-14,14s6,14,14,14s14-6,14-14S1723.5,74.8,1715.5,74.8 M1715.5,100.8
			c-6.9,0-11.9-5-11.9-12.1c0-7.1,5-12.1,11.9-12.1s11.9,5,11.9,12.1C1727.4,95.8,1722.4,100.8,1715.5,100.8"/>
	</g>
</g>
</svg>
