<?xml version="1.0" encoding="utf-8"?>
<!-- Generator: Adobe Illustrator 25.4.1, SVG Export Plug-In . SVG Version: 6.00 Build 0)  -->
<svg version="1.1" id="Layer_1" xmlns="http://www.w3.org/2000/svg" xmlns:xlink="http://www.w3.org/1999/xlink" x="0px" y="0px"
	 viewBox="0 0 1746.5 266.4" style="enable-background:new 0 0 1746.5 266.4;" xml:space="preserve">
<style type="text/css">
	.st0{fill:#FA582D;}
	.st1{fill:#00CC66;}
</style>
<g>
	<polygon class="st0" points="260.9,72.6 216.6,28.3 172.3,72.6 194.3,94.5 83.3,205.4 127.6,249.7 171.9,205.4 149.8,183.4 	"/>
	
		<rect x="16.2" y="74.6" transform="matrix(0.7074 -0.7068 0.7068 0.7074 -47.1893 97.8689)" class="st0" width="156.9" height="62.6"/>
	
		<rect x="171" y="140.8" transform="matrix(0.7074 -0.7068 0.7068 0.7074 -48.6839 226.6504)" class="st0" width="156.9" height="62.6"/>
</g>
<rect x="386" y="9.9" width="1.8" height="252.4"/>
<g>
	<g>
		<g>
			<path class="st1" d="M615.2,136c0,33.8-27.4,61.2-61.2,61.2V74.7C587.8,74.7,615.2,102.2,615.2,136z"/>
			<path class="st1" d="M492.7,136c0,33.8,27.4,61.2,61.2,61.2v46.2c-59.3,0-107.3-48-107.3-107.3c0-59.3,48-107.3,107.3-107.3v45.9
				C520.2,74.7,492.7,102.2,492.7,136z"/>
			<path d="M682.3,136.7c0,36.3,28.6,61.7,78.8,61.7c18.2,0,33.2-3.6,46.4-9v-28.8c-12.8,6.5-26.4,12-44.6,12
				c-29.2,0-47.4-13.7-47.4-36.1c0-21.9,18.9-36.1,47.7-36.1c18.3,0,31.4,5.5,44.3,11.9v-29c-13.3-5.3-27.8-8.7-46-8.7
				C712.6,74.6,682.3,102,682.3,136.7z"/>
			<path d="M1173.7,116c0-24.4-18.4-38.8-53-38.8h-72.3v118.5h33v-40.6h24.4l36.6,40.6h37.7l-39.4-42.9
				C1160.2,147.9,1173.7,135.2,1173.7,116z M1112.7,132.2h-31.4v-31.1h32.9c18.6,0,26.1,5.5,26.1,15.5
				C1140.3,127,1131,132.2,1112.7,132.2z"/>
			<polygon points="1213.3,102.7 1263.1,102.7 1263.1,195.7 1296,195.7 1296,102.7 1345.8,102.7 1345.8,77.2 1213.3,77.2 			"/>
			<polygon points="1392.5,195.7 1507.3,195.7 1507.3,171.5 1424.9,171.5 1424.9,146.8 1486,146.8 1486,124.7 1424.9,124.7 
				1424.9,101.4 1507.3,101.4 1507.3,77.2 1392.5,77.2 			"/>
			<polygon points="1635.9,135.6 1689.1,77.2 1650,77.2 1616.5,116.9 1582.9,77.2 1542.5,77.2 1595.7,135.9 1541,195.7 1580,195.7 
				1615.1,156.5 1650.2,195.7 1690.6,195.7 			"/>
			<g>
				<g>
					<path d="M1001.8,136.4c0,37.4-29.2,62.5-73.5,62.5c-44,0-73.1-25.1-73.1-62.5c0-37.4,29.2-62.5,73.1-62.5
						C972.6,74,1001.8,99.3,1001.8,136.4z M891.1,136.4c0,22.1,16.4,35.1,37.2,35.1c21,0,37.6-13,37.6-35.1
						c0-22.2-16.6-35.1-37.6-35.1C907.4,101.4,891.1,114.2,891.1,136.4z"/>
				</g>
			</g>
		</g>
	</g>
	<g>
		<path d="M1721.4,89.1v-0.4c0-2.5-1.9-4.3-5.3-4.3h-5.9V98h2.8v-4.6h3.1l2.3,4.6h3.1l-2.9-5.4C1720.4,92.1,1721.4,90.8,1721.4,89.1
			 M1713,86.9h3.1c1.8,0,2.5,0.6,2.5,1.9V89c0,1.2-0.7,1.9-2.5,1.9h-3.1V86.9z"/>
		<path d="M1715.5,77.2c-7.9,0-14,6-14,14c0,7.9,6,14,14,14c7.9,0,14-6,14-14C1729.5,83.3,1723.5,77.2,1715.5,77.2 M1715.5,103.3
			c-6.9,0-11.9-5-11.9-12.1c0-7.1,5-12.1,11.9-12.1c6.9,0,11.9,5,11.9,12.1C1727.4,98.3,1722.4,103.3,1715.5,103.3"/>
	</g>
</g>
</svg>
